  0
SECTION
  2
HEADER
  9
$ACADVER
  1
AC1014
  9
$HANDSEED
  5
FFFF
  9
$MEASUREMENT
 70
     1
  0
ENDSEC
  0
SECTION
  2
TABLES
  0
TABLE
  2
VPORT
  5
8
330
0
100
AcDbSymbolTable
 70
     4
  0
VPORT
  5
2E
330
8
100
AcDbSymbolTableRecord
100
AcDbViewportTableRecord
  2
*ACTIVE
 70
     0
 10
0.0
 20
0.0
 11
1.0
 21
1.0
 12
210.0
 22
148.5
 13
0.0
 23
0.0
 14
10.0
 24
10.0
 15
10.0
 25
10.0
 16
0.0
 26
0.0
 36
1.0
 17
0.0
 27
0.0
 37
0.0
 40
341.0
 41
1.24
 42
50.0
 43
0.0
 44
0.0
 50
0.0
 51
0.0
 71
     0
 72
   100
 73
     1
 74
     3
 75
     0
 76
     0
 77
     0
 78
     0
  0
ENDTAB
  0
TABLE
  2
LTYPE
  5
5
330
0
100
AcDbSymbolTable
 70
     1
  0
LTYPE
  5
14
330
5
100
AcDbSymbolTableRecord
100
AcDbLinetypeTableRecord
  2
BYBLOCK
 70
     0
  3

 72
    65
 73
     0
 40
0.0
  0
LTYPE
  5
15
330
5
100
AcDbSymbolTableRecord
100
AcDbLinetypeTableRecord
  2
BYLAYER
 70
     0
  3

 72
    65
 73
     0
 40
0.0
  0
LTYPE
  5
16
330
5
100
AcDbSymbolTableRecord
100
AcDbLinetypeTableRecord
  2
CONTINUOUS
 70
     0
  3
Solid line
 72
    65
 73
     0
 40
0.0
  0
ENDTAB
  0
TABLE
  2
LAYER
  5
2
100
AcDbSymbolTable
 70
1
  0
LAYER
  5
50
100
AcDbSymbolTableRecord
100
AcDbLayerTableRecord
  2
0
 70
0
  6
CONTINUOUS
  0
ENDTAB
  0
TABLE
  2
STYLE
  5
3
330
0
100
AcDbSymbolTable
 70
     1
  0
STYLE
  5
11
330
3
100
AcDbSymbolTableRecord
100
AcDbTextStyleTableRecord
  2
STANDARD
 70
     0
 40
0.0
 41
1.0
 50
0.0
 71
     0
 42
2.5
  3
txt
  4

  0
ENDTAB
  0
TABLE
  2
VIEW
  5
6
330
0
100
AcDbSymbolTable
 70
     0
  0
ENDTAB
  0
TABLE
  2
UCS
  5
7
330
0
100
AcDbSymbolTable
 70
     0
  0
ENDTAB
  0
TABLE
  2
APPID
  5
9
330
0
100
AcDbSymbolTable
 70
     2
  0
APPID
  5
12
330
9
100
AcDbSymbolTableRecord
100
AcDbRegAppTableRecord
  2
ACAD
 70
     0
  0
ENDTAB
  0
TABLE
  2
DIMSTYLE
  5
A
330
0
100
AcDbSymbolTable
 70
     1
  0
DIMSTYLE
105
27
330
A
100
AcDbSymbolTableRecord
100
AcDbDimStyleTableRecord
  2
ISO-25
 70
     0
  3

  4

  5

  6

  7

 40
1.0
 41
2.5
 42
0.625
 43
3.75
 44
1.25
 45
0.0
 46
0.0
 47
0.0
 48
0.0
140
2.5
141
2.5
142
0.0
143
0.03937007874016
144
1.0
145
0.0
146
1.0
147
0.625
 71
     0
 72
     0
 73
     0
 74
     0
 75
     0
 76
     0
 77
     1
 78
     8
170
     0
171
     3
172
     1
173
     0
174
     0
175
     0
176
     0
177
     0
178
     0
270
     2
271
     2
272
     2
273
     2
274
     3
340
11
275
     0
280
     0
281
     0
282
     0
283
     0
284
     8
285
     0
286
     0
287
     3
288
     0
  0
ENDTAB
  0
TABLE
  2
BLOCK_RECORD
  5
1
330
0
100
AcDbSymbolTable
 70
     1
  0
BLOCK_RECORD
  5
1F
330
1
100
AcDbSymbolTableRecord
100
AcDbBlockTableRecord
  2
*MODEL_SPACE
  0
BLOCK_RECORD
  5
1B
330
1
100
AcDbSymbolTableRecord
100
AcDbBlockTableRecord
  2
*PAPER_SPACE
  0
ENDTAB
  0
ENDSEC
  0
SECTION
  2
BLOCKS
  0
BLOCK
  5
20
330
1F
100
AcDbEntity
  8
0
100
AcDbBlockBegin
  2
*MODEL_SPACE
 70
     0
 10
0.0
 20
0.0
 30
0.0
  3
*MODEL_SPACE
  1

  0
ENDBLK
  5
21
330
1F
100
AcDbEntity
  8
0
100
AcDbBlockEnd
  0
BLOCK
  5
1C
330
1B
100
AcDbEntity
 67
     1
  8
0
100
AcDbBlockBegin
  2
*PAPER_SPACE
  1

  0
ENDBLK
  5
1D
330
1B
100
AcDbEntity
 67
     1
  8
0
100
AcDbBlockEnd
  0
ENDSEC
  0
SECTION
  2
ENTITIES
  0
SPLINE
  5
100
100
AcDbEntity
  8
0
 62
1
100
AcDbSpline
 70
8
 71
3
 72
8
 73
4
 74
0
 40
0
 40
0
 40
0
 40
0
 40
1
 40
1
 40
1
 40
1
 10
8.857000
 20
107.673000
 30
0.0
 10
6.597580
 20
107.142448
 30
0.0
 10
5.000280
 20
105.126876
 30
0.0
 10
5.000000
 20
102.806000
 30
0.0
  0
SPLINE
  5
101
100
AcDbEntity
  8
0
 62
5
100
AcDbSpline
 70
8
 71
3
 72
8
 73
4
 74
0
 40
0
 40
0
 40
0
 40
0
 40
1
 40
1
 40
1
 40
1
 10
10.000000
 20
101.206000
 30
0.0
 10
9.575654
 20
101.206000
 30
0.0
 10
9.168687
 20
101.374571
 30
0.0
 10
8.868629
 20
101.674629
 30
0.0
  0
SPLINE
  5
102
100
AcDbEntity
  8
0
 62
5
100
AcDbSpline
 70
8
 71
3
 72
8
 73
4
 74
0
 40
0
 40
0
 40
0
 40
0
 40
1
 40
1
 40
1
 40
1
 10
8.868629
 20
101.674629
 30
0.0
 10
8.568571
 20
101.974687
 30
0.0
 10
8.400000
 20
102.381654
 30
0.0
 10
8.400000
 20
102.806000
 30
0.0
  0
SPLINE
  5
103
100
AcDbEntity
  8
0
 62
5
100
AcDbSpline
 70
8
 71
3
 72
8
 73
4
 74
0
 40
0
 40
0
 40
0
 40
0
 40
1
 40
1
 40
1
 40
1
 10
8.400000
 20
102.806000
 30
0.0
 10
8.400000
 20
103.230346
 30
0.0
 10
8.568571
 20
103.637313
 30
0.0
 10
8.868629
 20
103.937371
 30
0.0
  0
SPLINE
  5
104
100
AcDbEntity
  8
0
 62
5
100
AcDbSpline
 70
8
 71
3
 72
8
 73
4
 74
0
 40
0
 40
0
 40
0
 40
0
 40
1
 40
1
 40
1
 40
1
 10
8.868629
 20
103.937371
 30
0.0
 10
9.168687
 20
104.237429
 30
0.0
 10
9.575654
 20
104.406000
 30
0.0
 10
10.000000
 20
104.406000
 30
0.0
  0
SPLINE
  5
105
100
AcDbEntity
  8
0
 62
5
100
AcDbSpline
 70
8
 71
3
 72
8
 73
4
 74
0
 40
0
 40
0
 40
0
 40
0
 40
1
 40
1
 40
1
 40
1
 10
10.000000
 20
104.406000
 30
0.0
 10
10.424346
 20
104.406000
 30
0.0
 10
10.831313
 20
104.237429
 30
0.0
 10
11.131371
 20
103.937371
 30
0.0
  0
SPLINE
  5
106
100
AcDbEntity
  8
0
 62
5
100
AcDbSpline
 70
8
 71
3
 72
8
 73
4
 74
0
 40
0
 40
0
 40
0
 40
0
 40
1
 40
1
 40
1
 40
1
 10
11.131371
 20
103.937371
 30
0.0
 10
11.431429
 20
103.637313
 30
0.0
 10
11.600000
 20
103.230346
 30
0.0
 10
11.600000
 20
102.806000
 30
0.0
  0
SPLINE
  5
107
100
AcDbEntity
  8
0
 62
5
100
AcDbSpline
 70
8
 71
3
 72
8
 73
4
 74
0
 40
0
 40
0
 40
0
 40
0
 40
1
 40
1
 40
1
 40
1
 10
11.600000
 20
102.806000
 30
0.0
 10
11.600000
 20
102.381654
 30
0.0
 10
11.431429
 20
101.974687
 30
0.0
 10
11.131371
 20
101.674629
 30
0.0
  0
SPLINE
  5
108
100
AcDbEntity
  8
0
 62
5
100
AcDbSpline
 70
8
 71
3
 72
8
 73
4
 74
0
 40
0
 40
0
 40
0
 40
0
 40
1
 40
1
 40
1
 40
1
 10
11.131371
 20
101.674629
 30
0.0
 10
10.831313
 20
101.374571
 30
0.0
 10
10.424346
 20
101.206000
 30
0.0
 10
10.000000
 20
101.206000
 30
0.0
  0
SPLINE
  5
109
100
AcDbEntity
  8
0
 62
5
100
AcDbSpline
 70
8
 71
3
 72
8
 73
4
 74
0
 40
0
 40
0
 40
0
 40
0
 40
1
 40
1
 40
1
 40
1
 10
10.000000
 20
66.206000
 30
0.0
 10
9.575654
 20
66.206000
 30
0.0
 10
9.168687
 20
66.374571
 30
0.0
 10
8.868629
 20
66.674629
 30
0.0
  0
SPLINE
  5
10a
100
AcDbEntity
  8
0
 62
5
100
AcDbSpline
 70
8
 71
3
 72
8
 73
4
 74
0
 40
0
 40
0
 40
0
 40
0
 40
1
 40
1
 40
1
 40
1
 10
8.868629
 20
66.674629
 30
0.0
 10
8.568571
 20
66.974687
 30
0.0
 10
8.400000
 20
67.381654
 30
0.0
 10
8.400000
 20
67.806000
 30
0.0
  0
SPLINE
  5
10b
100
AcDbEntity
  8
0
 62
5
100
AcDbSpline
 70
8
 71
3
 72
8
 73
4
 74
0
 40
0
 40
0
 40
0
 40
0
 40
1
 40
1
 40
1
 40
1
 10
8.400000
 20
67.806000
 30
0.0
 10
8.400000
 20
68.230346
 30
0.0
 10
8.568571
 20
68.637313
 30
0.0
 10
8.868629
 20
68.937371
 30
0.0
  0
SPLINE
  5
10c
100
AcDbEntity
  8
0
 62
5
100
AcDbSpline
 70
8
 71
3
 72
8
 73
4
 74
0
 40
0
 40
0
 40
0
 40
0
 40
1
 40
1
 40
1
 40
1
 10
8.868629
 20
68.937371
 30
0.0
 10
9.168687
 20
69.237429
 30
0.0
 10
9.575654
 20
69.406000
 30
0.0
 10
10.000000
 20
69.406000
 30
0.0
  0
SPLINE
  5
10d
100
AcDbEntity
  8
0
 62
5
100
AcDbSpline
 70
8
 71
3
 72
8
 73
4
 74
0
 40
0
 40
0
 40
0
 40
0
 40
1
 40
1
 40
1
 40
1
 10
10.000000
 20
69.406000
 30
0.0
 10
10.424346
 20
69.406000
 30
0.0
 10
10.831313
 20
69.237429
 30
0.0
 10
11.131371
 20
68.937371
 30
0.0
  0
SPLINE
  5
10e
100
AcDbEntity
  8
0
 62
5
100
AcDbSpline
 70
8
 71
3
 72
8
 73
4
 74
0
 40
0
 40
0
 40
0
 40
0
 40
1
 40
1
 40
1
 40
1
 10
11.131371
 20
68.937371
 30
0.0
 10
11.431429
 20
68.637313
 30
0.0
 10
11.600000
 20
68.230346
 30
0.0
 10
11.600000
 20
67.806000
 30
0.0
  0
SPLINE
  5
10f
100
AcDbEntity
  8
0
 62
5
100
AcDbSpline
 70
8
 71
3
 72
8
 73
4
 74
0
 40
0
 40
0
 40
0
 40
0
 40
1
 40
1
 40
1
 40
1
 10
11.600000
 20
67.806000
 30
0.0
 10
11.600000
 20
67.381654
 30
0.0
 10
11.431429
 20
66.974687
 30
0.0
 10
11.131371
 20
66.674629
 30
0.0
  0
SPLINE
  5
110
100
AcDbEntity
  8
0
 62
5
100
AcDbSpline
 70
8
 71
3
 72
8
 73
4
 74
0
 40
0
 40
0
 40
0
 40
0
 40
1
 40
1
 40
1
 40
1
 10
11.131371
 20
66.674629
 30
0.0
 10
10.831313
 20
66.374571
 30
0.0
 10
10.424346
 20
66.206000
 30
0.0
 10
10.000000
 20
66.206000
 30
0.0
  0
LWPOLYLINE
  5
111
100
AcDbEntity
  8
0
 62
1
100
AcDbPolyline
 90
7
 70
0
 10
5.000000
 20
102.806000
 30
0.0
 10
5.000000
 20
62.306000
 30
0.0
 10
13.000000
 20
62.306000
 30
0.0
 10
13.000000
 20
106.556000
 30
0.0
 10
17.500000
 20
106.556000
 30
0.0
 10
17.500000
 20
109.702000
 30
0.0
 10
8.857000
 20
107.673000
 30
0.0
  0
SPLINE
  5
112
100
AcDbEntity
  8
0
 62
1
100
AcDbSpline
 70
8
 71
3
 72
8
 73
4
 74
0
 40
0
 40
0
 40
0
 40
0
 40
1
 40
1
 40
1
 40
1
 10
20.130000
 20
13.651000
 30
0.0
 10
21.460158
 20
11.356442
 30
0.0
 10
23.647366
 20
9.684284
 30
0.0
 10
26.210440
 20
9.002398
 30
0.0
  0
SPLINE
  5
113
100
AcDbEntity
  8
0
 62
1
100
AcDbSpline
 70
8
 71
3
 72
8
 73
4
 74
0
 40
0
 40
0
 40
0
 40
0
 40
1
 40
1
 40
1
 40
1
 10
26.210440
 20
9.002398
 30
0.0
 10
28.773514
 20
8.320512
 30
0.0
 10
31.502491
 20
8.684757
 30
0.0
 10
33.797000
 20
10.015000
 30
0.0
  0
LWPOLYLINE
  5
114
100
AcDbEntity
  8
0
 62
1
100
AcDbPolyline
 90
2
 70
0
 10
6.349000
 20
37.425000
 30
0.0
 10
20.130000
 20
13.651000
 30
0.0
  0
SPLINE
  5
115
100
AcDbEntity
  8
0
 62
1
100
AcDbSpline
 70
8
 71
3
 72
8
 73
4
 74
0
 40
0
 40
0
 40
0
 40
0
 40
1
 40
1
 40
1
 40
1
 10
45.600000
 20
16.858000
 30
0.0
 10
46.755671
 20
17.527808
 30
0.0
 10
48.033822
 20
17.959299
 30
0.0
 10
49.359000
 20
18.127000
 30
0.0
  0
LWPOLYLINE
  5
116
100
AcDbEntity
  8
0
 62
1
100
AcDbPolyline
 90
2
 70
0
 10
33.797000
 20
10.015000
 30
0.0
 10
45.600000
 20
16.858000
 30
0.0
  0
SPLINE
  5
117
100
AcDbEntity
  8
0
 62
1
100
AcDbSpline
 70
8
 71
3
 72
8
 73
4
 74
0
 40
0
 40
0
 40
0
 40
0
 40
1
 40
1
 40
1
 40
1
 10
82.730000
 20
22.354000
 30
0.0
 10
85.462776
 20
22.700429
 30
0.0
 10
87.931622
 20
24.158799
 30
0.0
 10
89.554000
 20
26.385000
 30
0.0
  0
LWPOLYLINE
  5
118
100
AcDbEntity
  8
0
 62
1
100
AcDbPolyline
 90
2
 70
0
 10
49.359000
 20
18.127000
 30
0.0
 10
82.730000
 20
22.354000
 30
0.0
  0
SPLINE
  5
119
100
AcDbEntity
  8
0
 62
1
100
AcDbSpline
 70
8
 71
3
 72
8
 73
4
 74
0
 40
0
 40
0
 40
0
 40
0
 40
1
 40
1
 40
1
 40
1
 10
94.336000
 20
32.946000
 30
0.0
 10
96.218438
 20
35.528785
 30
0.0
 10
99.222010
 20
37.056214
 30
0.0
 10
102.418000
 20
37.056000
 30
0.0
  0
LWPOLYLINE
  5
11a
100
AcDbEntity
  8
0
 62
1
100
AcDbPolyline
 90
2
 70
0
 10
89.554000
 20
26.385000
 30
0.0
 10
94.336000
 20
32.946000
 30
0.0
  0
SPLINE
  5
11b
100
AcDbEntity
  8
0
 62
1
100
AcDbSpline
 70
8
 71
3
 72
8
 73
4
 74
0
 40
0
 40
0
 40
0
 40
0
 40
1
 40
1
 40
1
 40
1
 10
152.750000
 20
37.056000
 30
0.0
 10
154.076082
 20
37.056000
 30
0.0
 10
155.347852
 20
37.582784
 30
0.0
 10
156.285534
 20
38.520466
 30
0.0
  0
SPLINE
  5
11c
100
AcDbEntity
  8
0
 62
1
100
AcDbSpline
 70
8
 71
3
 72
8
 73
4
 74
0
 40
0
 40
0
 40
0
 40
0
 40
1
 40
1
 40
1
 40
1
 10
156.285534
 20
38.520466
 30
0.0
 10
157.223216
 20
39.458148
 30
0.0
 10
157.750000
 20
40.729918
 30
0.0
 10
157.750000
 20
42.056000
 30
0.0
  0
LWPOLYLINE
  5
11d
100
AcDbEntity
  8
0
 62
1
100
AcDbPolyline
 90
2
 70
0
 10
102.418000
 20
37.056000
 30
0.0
 10
152.750000
 20
37.056000
 30
0.0
  0
SPLINE
  5
11e
100
AcDbEntity
  8
0
 62
1
100
AcDbSpline
 70
8
 71
3
 72
8
 73
4
 74
0
 40
0
 40
0
 40
0
 40
0
 40
1
 40
1
 40
1
 40
1
 10
157.750000
 20
102.806000
 30
0.0
 10
157.749585
 20
105.108878
 30
0.0
 10
156.181441
 20
107.115756
 30
0.0
 10
153.947000
 20
107.673000
 30
0.0
  0
SPLINE
  5
11f
100
AcDbEntity
  8
0
 62
1
100
AcDbSpline
 70
8
 71
3
 72
8
 73
4
 74
0
 40
0
 40
0
 40
0
 40
0
 40
1
 40
1
 40
1
 40
1
 10
153.947000
 20
107.673000
 30
0.0
 10
114.140217
 20
117.596219
 30
0.0
 10
72.721216
 20
119.249957
 30
0.0
 10
32.250000
 20
112.532000
 30
0.0
  0
LWPOLYLINE
  5
120
100
AcDbEntity
  8
0
 62
1
100
AcDbPolyline
 90
2
 70
0
 10
157.750000
 20
42.056000
 30
0.0
 10
157.750000
 20
102.806000
 30
0.0
  0
SPLINE
  5
121
100
AcDbEntity
  8
0
 62
1
100
AcDbSpline
 70
8
 71
3
 72
8
 73
4
 74
0
 40
0
 40
0
 40
0
 40
0
 40
1
 40
1
 40
1
 40
1
 10
5.000000
 20
42.440000
 30
0.0
 10
5.000175
 20
40.678704
 30
0.0
 10
5.465535
 20
38.948697
 30
0.0
 10
6.349000
 20
37.425000
 30
0.0
  0
SPLINE
  5
122
100
AcDbEntity
  8
0
 62
5
100
AcDbSpline
 70
8
 71
3
 72
8
 73
4
 74
0
 40
0
 40
0
 40
0
 40
0
 40
1
 40
1
 40
1
 40
1
 10
39.500000
 20
107.956000
 30
0.0
 10
39.075654
 20
107.956000
 30
0.0
 10
38.668687
 20
108.124571
 30
0.0
 10
38.368629
 20
108.424629
 30
0.0
  0
SPLINE
  5
123
100
AcDbEntity
  8
0
 62
5
100
AcDbSpline
 70
8
 71
3
 72
8
 73
4
 74
0
 40
0
 40
0
 40
0
 40
0
 40
1
 40
1
 40
1
 40
1
 10
38.368629
 20
108.424629
 30
0.0
 10
38.068571
 20
108.724687
 30
0.0
 10
37.900000
 20
109.131654
 30
0.0
 10
37.900000
 20
109.556000
 30
0.0
  0
SPLINE
  5
124
100
AcDbEntity
  8
0
 62
5
100
AcDbSpline
 70
8
 71
3
 72
8
 73
4
 74
0
 40
0
 40
0
 40
0
 40
0
 40
1
 40
1
 40
1
 40
1
 10
37.900000
 20
109.556000
 30
0.0
 10
37.900000
 20
109.980346
 30
0.0
 10
38.068571
 20
110.387313
 30
0.0
 10
38.368629
 20
110.687371
 30
0.0
  0
SPLINE
  5
125
100
AcDbEntity
  8
0
 62
5
100
AcDbSpline
 70
8
 71
3
 72
8
 73
4
 74
0
 40
0
 40
0
 40
0
 40
0
 40
1
 40
1
 40
1
 40
1
 10
38.368629
 20
110.687371
 30
0.0
 10
38.668687
 20
110.987429
 30
0.0
 10
39.075654
 20
111.156000
 30
0.0
 10
39.500000
 20
111.156000
 30
0.0
  0
SPLINE
  5
126
100
AcDbEntity
  8
0
 62
5
100
AcDbSpline
 70
8
 71
3
 72
8
 73
4
 74
0
 40
0
 40
0
 40
0
 40
0
 40
1
 40
1
 40
1
 40
1
 10
39.500000
 20
111.156000
 30
0.0
 10
39.924346
 20
111.156000
 30
0.0
 10
40.331313
 20
110.987429
 30
0.0
 10
40.631371
 20
110.687371
 30
0.0
  0
SPLINE
  5
127
100
AcDbEntity
  8
0
 62
5
100
AcDbSpline
 70
8
 71
3
 72
8
 73
4
 74
0
 40
0
 40
0
 40
0
 40
0
 40
1
 40
1
 40
1
 40
1
 10
40.631371
 20
110.687371
 30
0.0
 10
40.931429
 20
110.387313
 30
0.0
 10
41.100000
 20
109.980346
 30
0.0
 10
41.100000
 20
109.556000
 30
0.0
  0
SPLINE
  5
128
100
AcDbEntity
  8
0
 62
5
100
AcDbSpline
 70
8
 71
3
 72
8
 73
4
 74
0
 40
0
 40
0
 40
0
 40
0
 40
1
 40
1
 40
1
 40
1
 10
41.100000
 20
109.556000
 30
0.0
 10
41.100000
 20
109.131654
 30
0.0
 10
40.931429
 20
108.724687
 30
0.0
 10
40.631371
 20
108.424629
 30
0.0
  0
SPLINE
  5
129
100
AcDbEntity
  8
0
 62
5
100
AcDbSpline
 70
8
 71
3
 72
8
 73
4
 74
0
 40
0
 40
0
 40
0
 40
0
 40
1
 40
1
 40
1
 40
1
 10
40.631371
 20
108.424629
 30
0.0
 10
40.331313
 20
108.124571
 30
0.0
 10
39.924346
 20
107.956000
 30
0.0
 10
39.500000
 20
107.956000
 30
0.0
  0
SPLINE
  5
12a
100
AcDbEntity
  8
0
 62
5
100
AcDbSpline
 70
8
 71
3
 72
8
 73
4
 74
0
 40
0
 40
0
 40
0
 40
0
 40
1
 40
1
 40
1
 40
1
 10
10.000000
 20
40.840000
 30
0.0
 10
9.575654
 20
40.840000
 30
0.0
 10
9.168687
 20
41.008571
 30
0.0
 10
8.868629
 20
41.308629
 30
0.0
  0
SPLINE
  5
12b
100
AcDbEntity
  8
0
 62
5
100
AcDbSpline
 70
8
 71
3
 72
8
 73
4
 74
0
 40
0
 40
0
 40
0
 40
0
 40
1
 40
1
 40
1
 40
1
 10
8.868629
 20
41.308629
 30
0.0
 10
8.568571
 20
41.608687
 30
0.0
 10
8.400000
 20
42.015654
 30
0.0
 10
8.400000
 20
42.440000
 30
0.0
  0
SPLINE
  5
12c
100
AcDbEntity
  8
0
 62
5
100
AcDbSpline
 70
8
 71
3
 72
8
 73
4
 74
0
 40
0
 40
0
 40
0
 40
0
 40
1
 40
1
 40
1
 40
1
 10
8.400000
 20
42.440000
 30
0.0
 10
8.400000
 20
42.864346
 30
0.0
 10
8.568571
 20
43.271313
 30
0.0
 10
8.868629
 20
43.571371
 30
0.0
  0
SPLINE
  5
12d
100
AcDbEntity
  8
0
 62
5
100
AcDbSpline
 70
8
 71
3
 72
8
 73
4
 74
0
 40
0
 40
0
 40
0
 40
0
 40
1
 40
1
 40
1
 40
1
 10
8.868629
 20
43.571371
 30
0.0
 10
9.168687
 20
43.871429
 30
0.0
 10
9.575654
 20
44.040000
 30
0.0
 10
10.000000
 20
44.040000
 30
0.0
  0
SPLINE
  5
12e
100
AcDbEntity
  8
0
 62
5
100
AcDbSpline
 70
8
 71
3
 72
8
 73
4
 74
0
 40
0
 40
0
 40
0
 40
0
 40
1
 40
1
 40
1
 40
1
 10
10.000000
 20
44.040000
 30
0.0
 10
10.424346
 20
44.040000
 30
0.0
 10
10.831313
 20
43.871429
 30
0.0
 10
11.131371
 20
43.571371
 30
0.0
  0
SPLINE
  5
12f
100
AcDbEntity
  8
0
 62
5
100
AcDbSpline
 70
8
 71
3
 72
8
 73
4
 74
0
 40
0
 40
0
 40
0
 40
0
 40
1
 40
1
 40
1
 40
1
 10
11.131371
 20
43.571371
 30
0.0
 10
11.431429
 20
43.271313
 30
0.0
 10
11.600000
 20
42.864346
 30
0.0
 10
11.600000
 20
42.440000
 30
0.0
  0
SPLINE
  5
130
100
AcDbEntity
  8
0
 62
5
100
AcDbSpline
 70
8
 71
3
 72
8
 73
4
 74
0
 40
0
 40
0
 40
0
 40
0
 40
1
 40
1
 40
1
 40
1
 10
11.600000
 20
42.440000
 30
0.0
 10
11.600000
 20
42.015654
 30
0.0
 10
11.431429
 20
41.608687
 30
0.0
 10
11.131371
 20
41.308629
 30
0.0
  0
SPLINE
  5
131
100
AcDbEntity
  8
0
 62
5
100
AcDbSpline
 70
8
 71
3
 72
8
 73
4
 74
0
 40
0
 40
0
 40
0
 40
0
 40
1
 40
1
 40
1
 40
1
 10
11.131371
 20
41.308629
 30
0.0
 10
10.831313
 20
41.008571
 30
0.0
 10
10.424346
 20
40.840000
 30
0.0
 10
10.000000
 20
40.840000
 30
0.0
  0
SPLINE
  5
132
100
AcDbEntity
  8
0
 62
5
100
AcDbSpline
 70
8
 71
3
 72
8
 73
4
 74
0
 40
0
 40
0
 40
0
 40
0
 40
1
 40
1
 40
1
 40
1
 10
88.229000
 20
31.456000
 30
0.0
 10
87.804654
 20
31.456000
 30
0.0
 10
87.397687
 20
31.624571
 30
0.0
 10
87.097629
 20
31.924629
 30
0.0
  0
SPLINE
  5
133
100
AcDbEntity
  8
0
 62
5
100
AcDbSpline
 70
8
 71
3
 72
8
 73
4
 74
0
 40
0
 40
0
 40
0
 40
0
 40
1
 40
1
 40
1
 40
1
 10
87.097629
 20
31.924629
 30
0.0
 10
86.797571
 20
32.224687
 30
0.0
 10
86.629000
 20
32.631654
 30
0.0
 10
86.629000
 20
33.056000
 30
0.0
  0
SPLINE
  5
134
100
AcDbEntity
  8
0
 62
5
100
AcDbSpline
 70
8
 71
3
 72
8
 73
4
 74
0
 40
0
 40
0
 40
0
 40
0
 40
1
 40
1
 40
1
 40
1
 10
86.629000
 20
33.056000
 30
0.0
 10
86.629000
 20
33.480346
 30
0.0
 10
86.797571
 20
33.887313
 30
0.0
 10
87.097629
 20
34.187371
 30
0.0
  0
SPLINE
  5
135
100
AcDbEntity
  8
0
 62
5
100
AcDbSpline
 70
8
 71
3
 72
8
 73
4
 74
0
 40
0
 40
0
 40
0
 40
0
 40
1
 40
1
 40
1
 40
1
 10
87.097629
 20
34.187371
 30
0.0
 10
87.397687
 20
34.487429
 30
0.0
 10
87.804654
 20
34.656000
 30
0.0
 10
88.229000
 20
34.656000
 30
0.0
  0
SPLINE
  5
136
100
AcDbEntity
  8
0
 62
5
100
AcDbSpline
 70
8
 71
3
 72
8
 73
4
 74
0
 40
0
 40
0
 40
0
 40
0
 40
1
 40
1
 40
1
 40
1
 10
88.229000
 20
34.656000
 30
0.0
 10
88.653346
 20
34.656000
 30
0.0
 10
89.060313
 20
34.487429
 30
0.0
 10
89.360371
 20
34.187371
 30
0.0
  0
SPLINE
  5
137
100
AcDbEntity
  8
0
 62
5
100
AcDbSpline
 70
8
 71
3
 72
8
 73
4
 74
0
 40
0
 40
0
 40
0
 40
0
 40
1
 40
1
 40
1
 40
1
 10
89.360371
 20
34.187371
 30
0.0
 10
89.660429
 20
33.887313
 30
0.0
 10
89.829000
 20
33.480346
 30
0.0
 10
89.829000
 20
33.056000
 30
0.0
  0
SPLINE
  5
138
100
AcDbEntity
  8
0
 62
5
100
AcDbSpline
 70
8
 71
3
 72
8
 73
4
 74
0
 40
0
 40
0
 40
0
 40
0
 40
1
 40
1
 40
1
 40
1
 10
89.829000
 20
33.056000
 30
0.0
 10
89.829000
 20
32.631654
 30
0.0
 10
89.660429
 20
32.224687
 30
0.0
 10
89.360371
 20
31.924629
 30
0.0
  0
SPLINE
  5
139
100
AcDbEntity
  8
0
 62
5
100
AcDbSpline
 70
8
 71
3
 72
8
 73
4
 74
0
 40
0
 40
0
 40
0
 40
0
 40
1
 40
1
 40
1
 40
1
 10
89.360371
 20
31.924629
 30
0.0
 10
89.060313
 20
31.624571
 30
0.0
 10
88.653346
 20
31.456000
 30
0.0
 10
88.229000
 20
31.456000
 30
0.0
  0
SPLINE
  5
13a
100
AcDbEntity
  8
0
 62
5
100
AcDbSpline
 70
8
 71
3
 72
8
 73
4
 74
0
 40
0
 40
0
 40
0
 40
0
 40
1
 40
1
 40
1
 40
1
 10
152.750000
 20
101.206000
 30
0.0
 10
152.325654
 20
101.206000
 30
0.0
 10
151.918687
 20
101.374571
 30
0.0
 10
151.618629
 20
101.674629
 30
0.0
  0
SPLINE
  5
13b
100
AcDbEntity
  8
0
 62
5
100
AcDbSpline
 70
8
 71
3
 72
8
 73
4
 74
0
 40
0
 40
0
 40
0
 40
0
 40
1
 40
1
 40
1
 40
1
 10
151.618629
 20
101.674629
 30
0.0
 10
151.318571
 20
101.974687
 30
0.0
 10
151.150000
 20
102.381654
 30
0.0
 10
151.150000
 20
102.806000
 30
0.0
  0
SPLINE
  5
13c
100
AcDbEntity
  8
0
 62
5
100
AcDbSpline
 70
8
 71
3
 72
8
 73
4
 74
0
 40
0
 40
0
 40
0
 40
0
 40
1
 40
1
 40
1
 40
1
 10
151.150000
 20
102.806000
 30
0.0
 10
151.150000
 20
103.230346
 30
0.0
 10
151.318571
 20
103.637313
 30
0.0
 10
151.618629
 20
103.937371
 30
0.0
  0
SPLINE
  5
13d
100
AcDbEntity
  8
0
 62
5
100
AcDbSpline
 70
8
 71
3
 72
8
 73
4
 74
0
 40
0
 40
0
 40
0
 40
0
 40
1
 40
1
 40
1
 40
1
 10
151.618629
 20
103.937371
 30
0.0
 10
151.918687
 20
104.237429
 30
0.0
 10
152.325654
 20
104.406000
 30
0.0
 10
152.750000
 20
104.406000
 30
0.0
  0
SPLINE
  5
13e
100
AcDbEntity
  8
0
 62
5
100
AcDbSpline
 70
8
 71
3
 72
8
 73
4
 74
0
 40
0
 40
0
 40
0
 40
0
 40
1
 40
1
 40
1
 40
1
 10
152.750000
 20
104.406000
 30
0.0
 10
153.174346
 20
104.406000
 30
0.0
 10
153.581313
 20
104.237429
 30
0.0
 10
153.881371
 20
103.937371
 30
0.0
  0
SPLINE
  5
13f
100
AcDbEntity
  8
0
 62
5
100
AcDbSpline
 70
8
 71
3
 72
8
 73
4
 74
0
 40
0
 40
0
 40
0
 40
0
 40
1
 40
1
 40
1
 40
1
 10
153.881371
 20
103.937371
 30
0.0
 10
154.181429
 20
103.637313
 30
0.0
 10
154.350000
 20
103.230346
 30
0.0
 10
154.350000
 20
102.806000
 30
0.0
  0
SPLINE
  5
140
100
AcDbEntity
  8
0
 62
5
100
AcDbSpline
 70
8
 71
3
 72
8
 73
4
 74
0
 40
0
 40
0
 40
0
 40
0
 40
1
 40
1
 40
1
 40
1
 10
154.350000
 20
102.806000
 30
0.0
 10
154.350000
 20
102.381654
 30
0.0
 10
154.181429
 20
101.974687
 30
0.0
 10
153.881371
 20
101.674629
 30
0.0
  0
SPLINE
  5
141
100
AcDbEntity
  8
0
 62
5
100
AcDbSpline
 70
8
 71
3
 72
8
 73
4
 74
0
 40
0
 40
0
 40
0
 40
0
 40
1
 40
1
 40
1
 40
1
 10
153.881371
 20
101.674629
 30
0.0
 10
153.581313
 20
101.374571
 30
0.0
 10
153.174346
 20
101.206000
 30
0.0
 10
152.750000
 20
101.206000
 30
0.0
  0
SPLINE
  5
142
100
AcDbEntity
  8
0
 62
5
100
AcDbSpline
 70
8
 71
3
 72
8
 73
4
 74
0
 40
0
 40
0
 40
0
 40
0
 40
1
 40
1
 40
1
 40
1
 10
151.432000
 20
41.774000
 30
0.0
 10
151.007654
 20
41.774000
 30
0.0
 10
150.600687
 20
41.942571
 30
0.0
 10
150.300629
 20
42.242629
 30
0.0
  0
SPLINE
  5
143
100
AcDbEntity
  8
0
 62
5
100
AcDbSpline
 70
8
 71
3
 72
8
 73
4
 74
0
 40
0
 40
0
 40
0
 40
0
 40
1
 40
1
 40
1
 40
1
 10
150.300629
 20
42.242629
 30
0.0
 10
150.000571
 20
42.542687
 30
0.0
 10
149.832000
 20
42.949654
 30
0.0
 10
149.832000
 20
43.374000
 30
0.0
  0
SPLINE
  5
144
100
AcDbEntity
  8
0
 62
5
100
AcDbSpline
 70
8
 71
3
 72
8
 73
4
 74
0
 40
0
 40
0
 40
0
 40
0
 40
1
 40
1
 40
1
 40
1
 10
149.832000
 20
43.374000
 30
0.0
 10
149.832000
 20
43.798346
 30
0.0
 10
150.000571
 20
44.205313
 30
0.0
 10
150.300629
 20
44.505371
 30
0.0
  0
SPLINE
  5
145
100
AcDbEntity
  8
0
 62
5
100
AcDbSpline
 70
8
 71
3
 72
8
 73
4
 74
0
 40
0
 40
0
 40
0
 40
0
 40
1
 40
1
 40
1
 40
1
 10
150.300629
 20
44.505371
 30
0.0
 10
150.600687
 20
44.805429
 30
0.0
 10
151.007654
 20
44.974000
 30
0.0
 10
151.432000
 20
44.974000
 30
0.0
  0
SPLINE
  5
146
100
AcDbEntity
  8
0
 62
5
100
AcDbSpline
 70
8
 71
3
 72
8
 73
4
 74
0
 40
0
 40
0
 40
0
 40
0
 40
1
 40
1
 40
1
 40
1
 10
151.432000
 20
44.974000
 30
0.0
 10
151.856346
 20
44.974000
 30
0.0
 10
152.263313
 20
44.805429
 30
0.0
 10
152.563371
 20
44.505371
 30
0.0
  0
SPLINE
  5
147
100
AcDbEntity
  8
0
 62
5
100
AcDbSpline
 70
8
 71
3
 72
8
 73
4
 74
0
 40
0
 40
0
 40
0
 40
0
 40
1
 40
1
 40
1
 40
1
 10
152.563371
 20
44.505371
 30
0.0
 10
152.863429
 20
44.205313
 30
0.0
 10
153.032000
 20
43.798346
 30
0.0
 10
153.032000
 20
43.374000
 30
0.0
  0
SPLINE
  5
148
100
AcDbEntity
  8
0
 62
5
100
AcDbSpline
 70
8
 71
3
 72
8
 73
4
 74
0
 40
0
 40
0
 40
0
 40
0
 40
1
 40
1
 40
1
 40
1
 10
153.032000
 20
43.374000
 30
0.0
 10
153.032000
 20
42.949654
 30
0.0
 10
152.863429
 20
42.542687
 30
0.0
 10
152.563371
 20
42.242629
 30
0.0
  0
SPLINE
  5
149
100
AcDbEntity
  8
0
 62
5
100
AcDbSpline
 70
8
 71
3
 72
8
 73
4
 74
0
 40
0
 40
0
 40
0
 40
0
 40
1
 40
1
 40
1
 40
1
 10
152.563371
 20
42.242629
 30
0.0
 10
152.263313
 20
41.942571
 30
0.0
 10
151.856346
 20
41.774000
 30
0.0
 10
151.432000
 20
41.774000
 30
0.0
  0
LWPOLYLINE
  5
14a
100
AcDbEntity
  8
0
 62
1
100
AcDbPolyline
 90
20
 70
0
 10
32.250000
 20
112.532000
 30
0.0
 10
32.250000
 20
106.556000
 30
0.0
 10
52.750000
 20
106.556000
 30
0.0
 10
52.750000
 20
109.056000
 30
0.0
 10
71.750000
 20
109.056000
 30
0.0
 10
71.750000
 20
111.306000
 30
0.0
 10
92.750000
 20
111.306000
 30
0.0
 10
92.750000
 20
109.056000
 30
0.0
 10
111.750000
 20
109.056000
 30
0.0
 10
111.750000
 20
104.306000
 30
0.0
 10
149.750000
 20
104.306000
 30
0.0
 10
149.750000
 20
45.056000
 30
0.0
 10
93.263000
 20
45.056000
 30
0.0
 10
82.581000
 20
30.399000
 30
0.0
 10
44.740000
 20
25.606000
 30
0.0
 10
28.055000
 20
15.933000
 30
0.0
 10
13.000000
 20
41.902000
 30
0.0
 10
13.000000
 20
48.306000
 30
0.0
 10
5.000000
 20
48.306000
 30
0.0
 10
5.000000
 20
42.440000
 30
0.0
  0
ENDSEC
  0
SECTION
  2
OBJECTS
  0
DICTIONARY
  5
C
330
0
100
AcDbDictionary
  3
ACAD_GROUP
350
D
  3
ACAD_MLINESTYLE
350
17
  0
DICTIONARY
  5
D
330
C
100
AcDbDictionary
  0
DICTIONARY
  5
1A
330
C
100
AcDbDictionary
  0
DICTIONARY
  5
17
330
C
100
AcDbDictionary
  3
STANDARD
350
18
  0
DICTIONARY
  5
19
330
C
100
AcDbDictionary
  0
ENDSEC
  0
EOF
