  0
SECTION
  2
HEADER
  9
$ACADVER
  1
AC1014
  9
$HANDSEED
  5
FFFF
  9
$MEASUREMENT
 70
     1
  0
ENDSEC
  0
SECTION
  2
TABLES
  0
TABLE
  2
VPORT
  5
8
330
0
100
AcDbSymbolTable
 70
     4
  0
VPORT
  5
2E
330
8
100
AcDbSymbolTableRecord
100
AcDbViewportTableRecord
  2
*ACTIVE
 70
     0
 10
0.0
 20
0.0
 11
1.0
 21
1.0
 12
210.0
 22
148.5
 13
0.0
 23
0.0
 14
10.0
 24
10.0
 15
10.0
 25
10.0
 16
0.0
 26
0.0
 36
1.0
 17
0.0
 27
0.0
 37
0.0
 40
341.0
 41
1.24
 42
50.0
 43
0.0
 44
0.0
 50
0.0
 51
0.0
 71
     0
 72
   100
 73
     1
 74
     3
 75
     0
 76
     0
 77
     0
 78
     0
  0
ENDTAB
  0
TABLE
  2
LTYPE
  5
5
330
0
100
AcDbSymbolTable
 70
     1
  0
LTYPE
  5
14
330
5
100
AcDbSymbolTableRecord
100
AcDbLinetypeTableRecord
  2
BYBLOCK
 70
     0
  3

 72
    65
 73
     0
 40
0.0
  0
LTYPE
  5
15
330
5
100
AcDbSymbolTableRecord
100
AcDbLinetypeTableRecord
  2
BYLAYER
 70
     0
  3

 72
    65
 73
     0
 40
0.0
  0
LTYPE
  5
16
330
5
100
AcDbSymbolTableRecord
100
AcDbLinetypeTableRecord
  2
CONTINUOUS
 70
     0
  3
Solid line
 72
    65
 73
     0
 40
0.0
  0
ENDTAB
  0
TABLE
  2
LAYER
  5
2
100
AcDbSymbolTable
 70
1
  0
LAYER
  5
50
100
AcDbSymbolTableRecord
100
AcDbLayerTableRecord
  2
0
 70
0
  6
CONTINUOUS
  0
ENDTAB
  0
TABLE
  2
STYLE
  5
3
330
0
100
AcDbSymbolTable
 70
     1
  0
STYLE
  5
11
330
3
100
AcDbSymbolTableRecord
100
AcDbTextStyleTableRecord
  2
STANDARD
 70
     0
 40
0.0
 41
1.0
 50
0.0
 71
     0
 42
2.5
  3
txt
  4

  0
ENDTAB
  0
TABLE
  2
VIEW
  5
6
330
0
100
AcDbSymbolTable
 70
     0
  0
ENDTAB
  0
TABLE
  2
UCS
  5
7
330
0
100
AcDbSymbolTable
 70
     0
  0
ENDTAB
  0
TABLE
  2
APPID
  5
9
330
0
100
AcDbSymbolTable
 70
     2
  0
APPID
  5
12
330
9
100
AcDbSymbolTableRecord
100
AcDbRegAppTableRecord
  2
ACAD
 70
     0
  0
ENDTAB
  0
TABLE
  2
DIMSTYLE
  5
A
330
0
100
AcDbSymbolTable
 70
     1
  0
DIMSTYLE
105
27
330
A
100
AcDbSymbolTableRecord
100
AcDbDimStyleTableRecord
  2
ISO-25
 70
     0
  3

  4

  5

  6

  7

 40
1.0
 41
2.5
 42
0.625
 43
3.75
 44
1.25
 45
0.0
 46
0.0
 47
0.0
 48
0.0
140
2.5
141
2.5
142
0.0
143
0.03937007874016
144
1.0
145
0.0
146
1.0
147
0.625
 71
     0
 72
     0
 73
     0
 74
     0
 75
     0
 76
     0
 77
     1
 78
     8
170
     0
171
     3
172
     1
173
     0
174
     0
175
     0
176
     0
177
     0
178
     0
270
     2
271
     2
272
     2
273
     2
274
     3
340
11
275
     0
280
     0
281
     0
282
     0
283
     0
284
     8
285
     0
286
     0
287
     3
288
     0
  0
ENDTAB
  0
TABLE
  2
BLOCK_RECORD
  5
1
330
0
100
AcDbSymbolTable
 70
     1
  0
BLOCK_RECORD
  5
1F
330
1
100
AcDbSymbolTableRecord
100
AcDbBlockTableRecord
  2
*MODEL_SPACE
  0
BLOCK_RECORD
  5
1B
330
1
100
AcDbSymbolTableRecord
100
AcDbBlockTableRecord
  2
*PAPER_SPACE
  0
ENDTAB
  0
ENDSEC
  0
SECTION
  2
BLOCKS
  0
BLOCK
  5
20
330
1F
100
AcDbEntity
  8
0
100
AcDbBlockBegin
  2
*MODEL_SPACE
 70
     0
 10
0.0
 20
0.0
 30
0.0
  3
*MODEL_SPACE
  1

  0
ENDBLK
  5
21
330
1F
100
AcDbEntity
  8
0
100
AcDbBlockEnd
  0
BLOCK
  5
1C
330
1B
100
AcDbEntity
 67
     1
  8
0
100
AcDbBlockBegin
  2
*PAPER_SPACE
  1

  0
ENDBLK
  5
1D
330
1B
100
AcDbEntity
 67
     1
  8
0
100
AcDbBlockEnd
  0
ENDSEC
  0
SECTION
  2
ENTITIES
  0
SPLINE
  5
100
100
AcDbEntity
  8
0
 62
1
100
AcDbSpline
 70
8
 71
3
 72
8
 73
4
 74
0
 40
0
 40
0
 40
0
 40
0
 40
1
 40
1
 40
1
 40
1
 10
5.000000
 20
40.244000
 30
0.0
 10
5.000175
 20
38.482704
 30
0.0
 10
5.465535
 20
36.752697
 30
0.0
 10
6.349000
 20
35.229000
 30
0.0
  0
LWPOLYLINE
  5
101
100
AcDbEntity
  8
0
 62
1
100
AcDbPolyline
 90
4
 70
0
 10
5.000000
 20
100.072000
 30
0.0
 10
5.000000
 20
59.572000
 30
0.0
 10
5.000000
 20
45.572000
 30
0.0
 10
5.000000
 20
40.244000
 30
0.0
  0
SPLINE
  5
102
100
AcDbEntity
  8
0
 62
1
100
AcDbSpline
 70
8
 71
3
 72
8
 73
4
 74
0
 40
0
 40
0
 40
0
 40
0
 40
1
 40
1
 40
1
 40
1
 10
18.858000
 20
13.651000
 30
0.0
 10
21.627889
 20
8.873421
 30
0.0
 10
27.746145
 20
7.245587
 30
0.0
 10
32.524000
 20
10.015000
 30
0.0
  0
LWPOLYLINE
  5
103
100
AcDbEntity
  8
0
 62
1
100
AcDbPolyline
 90
2
 70
0
 10
6.349000
 20
35.229000
 30
0.0
 10
18.858000
 20
13.651000
 30
0.0
  0
SPLINE
  5
104
100
AcDbEntity
  8
0
 62
1
100
AcDbSpline
 70
8
 71
3
 72
8
 73
4
 74
0
 40
0
 40
0
 40
0
 40
0
 40
1
 40
1
 40
1
 40
1
 10
42.947000
 20
16.057000
 30
0.0
 10
44.102596
 20
16.727158
 30
0.0
 10
45.380751
 20
17.158990
 30
0.0
 10
46.706000
 20
17.327000
 30
0.0
  0
LWPOLYLINE
  5
105
100
AcDbEntity
  8
0
 62
1
100
AcDbPolyline
 90
2
 70
0
 10
32.524000
 20
10.015000
 30
0.0
 10
42.947000
 20
16.057000
 30
0.0
  0
SPLINE
  5
106
100
AcDbEntity
  8
0
 62
1
100
AcDbSpline
 70
8
 71
3
 72
8
 73
4
 74
0
 40
0
 40
0
 40
0
 40
0
 40
1
 40
1
 40
1
 40
1
 10
79.622000
 20
21.496000
 30
0.0
 10
82.355138
 20
21.842167
 30
0.0
 10
84.824391
 20
23.300564
 30
0.0
 10
86.447000
 20
25.527000
 30
0.0
  0
LWPOLYLINE
  5
107
100
AcDbEntity
  8
0
 62
1
100
AcDbPolyline
 90
2
 70
0
 10
46.706000
 20
17.327000
 30
0.0
 10
79.622000
 20
21.496000
 30
0.0
  0
SPLINE
  5
108
100
AcDbEntity
  8
0
 62
1
100
AcDbSpline
 70
8
 71
3
 72
8
 73
4
 74
0
 40
0
 40
0
 40
0
 40
0
 40
1
 40
1
 40
1
 40
1
 10
91.319000
 20
32.212000
 30
0.0
 10
93.201231
 20
34.794500
 30
0.0
 10
96.204362
 20
36.321894
 30
0.0
 10
99.400000
 20
36.322000
 30
0.0
  0
LWPOLYLINE
  5
109
100
AcDbEntity
  8
0
 62
1
100
AcDbPolyline
 90
2
 70
0
 10
86.447000
 20
25.527000
 30
0.0
 10
91.319000
 20
32.212000
 30
0.0
  0
SPLINE
  5
10a
100
AcDbEntity
  8
0
 62
1
100
AcDbSpline
 70
8
 71
3
 72
8
 73
4
 74
0
 40
0
 40
0
 40
0
 40
0
 40
1
 40
1
 40
1
 40
1
 10
150.750000
 20
36.322000
 30
0.0
 10
151.545649
 20
36.322000
 30
0.0
 10
152.308711
 20
36.638071
 30
0.0
 10
152.871320
 20
37.200680
 30
0.0
  0
SPLINE
  5
10b
100
AcDbEntity
  8
0
 62
1
100
AcDbSpline
 70
8
 71
3
 72
8
 73
4
 74
0
 40
0
 40
0
 40
0
 40
0
 40
1
 40
1
 40
1
 40
1
 10
152.871320
 20
37.200680
 30
0.0
 10
153.433929
 20
37.763289
 30
0.0
 10
153.750000
 20
38.526351
 30
0.0
 10
153.750000
 20
39.322000
 30
0.0
  0
LWPOLYLINE
  5
10c
100
AcDbEntity
  8
0
 62
1
100
AcDbPolyline
 90
2
 70
0
 10
99.400000
 20
36.322000
 30
0.0
 10
150.750000
 20
36.322000
 30
0.0
  0
SPLINE
  5
10d
100
AcDbEntity
  8
0
 62
1
100
AcDbSpline
 70
8
 71
3
 72
8
 73
4
 74
0
 40
0
 40
0
 40
0
 40
0
 40
1
 40
1
 40
1
 40
1
 10
153.750000
 20
100.072000
 30
0.0
 10
153.750167
 20
101.454108
 30
0.0
 10
152.809075
 20
102.658723
 30
0.0
 10
151.468000
 20
102.993000
 30
0.0
  0
SPLINE
  5
10e
100
AcDbEntity
  8
0
 62
1
100
AcDbSpline
 70
8
 71
3
 72
8
 73
4
 74
0
 40
0
 40
0
 40
0
 40
0
 40
1
 40
1
 40
1
 40
1
 10
151.468000
 20
102.993000
 30
0.0
 10
111.816555
 20
112.877901
 30
0.0
 10
70.555809
 20
114.502216
 30
0.0
 10
30.250000
 20
107.765000
 30
0.0
  0
SPLINE
  5
10f
100
AcDbEntity
  8
0
 62
1
100
AcDbSpline
 70
8
 71
3
 72
8
 73
4
 74
0
 40
0
 40
0
 40
0
 40
0
 40
1
 40
1
 40
1
 40
1
 10
30.250000
 20
107.765000
 30
0.0
 10
25.310174
 20
106.939428
 30
0.0
 10
20.391946
 20
105.989459
 30
0.0
 10
15.500000
 20
104.916000
 30
0.0
  0
LWPOLYLINE
  5
110
100
AcDbEntity
  8
0
 62
1
100
AcDbPolyline
 90
2
 70
0
 10
153.750000
 20
39.322000
 30
0.0
 10
153.750000
 20
100.072000
 30
0.0
  0
SPLINE
  5
111
100
AcDbEntity
  8
0
 62
1
100
AcDbSpline
 70
8
 71
3
 72
8
 73
4
 74
0
 40
0
 40
0
 40
0
 40
0
 40
1
 40
1
 40
1
 40
1
 10
7.314000
 20
102.993000
 30
0.0
 10
5.958136
 20
102.674521
 30
0.0
 10
4.999775
 20
101.464765
 30
0.0
 10
5.000000
 20
100.072000
 30
0.0
  0
SPLINE
  5
112
100
AcDbEntity
  8
0
 62
5
100
AcDbSpline
 70
8
 71
3
 72
8
 73
4
 74
0
 40
0
 40
0
 40
0
 40
0
 40
1
 40
1
 40
1
 40
1
 10
8.000000
 20
98.972000
 30
0.0
 10
7.708262
 20
98.972000
 30
0.0
 10
7.428473
 20
99.087893
 30
0.0
 10
7.222183
 20
99.294183
 30
0.0
  0
SPLINE
  5
113
100
AcDbEntity
  8
0
 62
5
100
AcDbSpline
 70
8
 71
3
 72
8
 73
4
 74
0
 40
0
 40
0
 40
0
 40
0
 40
1
 40
1
 40
1
 40
1
 10
7.222183
 20
99.294183
 30
0.0
 10
7.015893
 20
99.500473
 30
0.0
 10
6.900000
 20
99.780262
 30
0.0
 10
6.900000
 20
100.072000
 30
0.0
  0
SPLINE
  5
114
100
AcDbEntity
  8
0
 62
5
100
AcDbSpline
 70
8
 71
3
 72
8
 73
4
 74
0
 40
0
 40
0
 40
0
 40
0
 40
1
 40
1
 40
1
 40
1
 10
6.900000
 20
100.072000
 30
0.0
 10
6.900000
 20
100.363738
 30
0.0
 10
7.015893
 20
100.643527
 30
0.0
 10
7.222183
 20
100.849817
 30
0.0
  0
SPLINE
  5
115
100
AcDbEntity
  8
0
 62
5
100
AcDbSpline
 70
8
 71
3
 72
8
 73
4
 74
0
 40
0
 40
0
 40
0
 40
0
 40
1
 40
1
 40
1
 40
1
 10
7.222183
 20
100.849817
 30
0.0
 10
7.428473
 20
101.056107
 30
0.0
 10
7.708262
 20
101.172000
 30
0.0
 10
8.000000
 20
101.172000
 30
0.0
  0
SPLINE
  5
116
100
AcDbEntity
  8
0
 62
5
100
AcDbSpline
 70
8
 71
3
 72
8
 73
4
 74
0
 40
0
 40
0
 40
0
 40
0
 40
1
 40
1
 40
1
 40
1
 10
8.000000
 20
101.172000
 30
0.0
 10
8.607513
 20
101.172000
 30
0.0
 10
9.100000
 20
100.679513
 30
0.0
 10
9.100000
 20
100.072000
 30
0.0
  0
SPLINE
  5
117
100
AcDbEntity
  8
0
 62
5
100
AcDbSpline
 70
8
 71
3
 72
8
 73
4
 74
0
 40
0
 40
0
 40
0
 40
0
 40
1
 40
1
 40
1
 40
1
 10
9.100000
 20
100.072000
 30
0.0
 10
9.100000
 20
99.464487
 30
0.0
 10
8.607513
 20
98.972000
 30
0.0
 10
8.000000
 20
98.972000
 30
0.0
  0
SPLINE
  5
118
100
AcDbEntity
  8
0
 62
5
100
AcDbSpline
 70
8
 71
3
 72
8
 73
4
 74
0
 40
0
 40
0
 40
0
 40
0
 40
1
 40
1
 40
1
 40
1
 10
8.000000
 20
63.972000
 30
0.0
 10
7.708262
 20
63.972000
 30
0.0
 10
7.428473
 20
64.087893
 30
0.0
 10
7.222183
 20
64.294183
 30
0.0
  0
SPLINE
  5
119
100
AcDbEntity
  8
0
 62
5
100
AcDbSpline
 70
8
 71
3
 72
8
 73
4
 74
0
 40
0
 40
0
 40
0
 40
0
 40
1
 40
1
 40
1
 40
1
 10
7.222183
 20
64.294183
 30
0.0
 10
7.015893
 20
64.500473
 30
0.0
 10
6.900000
 20
64.780262
 30
0.0
 10
6.900000
 20
65.072000
 30
0.0
  0
SPLINE
  5
11a
100
AcDbEntity
  8
0
 62
5
100
AcDbSpline
 70
8
 71
3
 72
8
 73
4
 74
0
 40
0
 40
0
 40
0
 40
0
 40
1
 40
1
 40
1
 40
1
 10
6.900000
 20
65.072000
 30
0.0
 10
6.900000
 20
65.363738
 30
0.0
 10
7.015893
 20
65.643527
 30
0.0
 10
7.222183
 20
65.849817
 30
0.0
  0
SPLINE
  5
11b
100
AcDbEntity
  8
0
 62
5
100
AcDbSpline
 70
8
 71
3
 72
8
 73
4
 74
0
 40
0
 40
0
 40
0
 40
0
 40
1
 40
1
 40
1
 40
1
 10
7.222183
 20
65.849817
 30
0.0
 10
7.428473
 20
66.056107
 30
0.0
 10
7.708262
 20
66.172000
 30
0.0
 10
8.000000
 20
66.172000
 30
0.0
  0
SPLINE
  5
11c
100
AcDbEntity
  8
0
 62
5
100
AcDbSpline
 70
8
 71
3
 72
8
 73
4
 74
0
 40
0
 40
0
 40
0
 40
0
 40
1
 40
1
 40
1
 40
1
 10
8.000000
 20
66.172000
 30
0.0
 10
8.607513
 20
66.172000
 30
0.0
 10
9.100000
 20
65.679513
 30
0.0
 10
9.100000
 20
65.072000
 30
0.0
  0
SPLINE
  5
11d
100
AcDbEntity
  8
0
 62
5
100
AcDbSpline
 70
8
 71
3
 72
8
 73
4
 74
0
 40
0
 40
0
 40
0
 40
0
 40
1
 40
1
 40
1
 40
1
 10
9.100000
 20
65.072000
 30
0.0
 10
9.100000
 20
64.464487
 30
0.0
 10
8.607513
 20
63.972000
 30
0.0
 10
8.000000
 20
63.972000
 30
0.0
  0
SPLINE
  5
11e
100
AcDbEntity
  8
0
 62
5
100
AcDbSpline
 70
8
 71
3
 72
8
 73
4
 74
0
 40
0
 40
0
 40
0
 40
0
 40
1
 40
1
 40
1
 40
1
 10
37.500000
 20
105.722000
 30
0.0
 10
37.208262
 20
105.722000
 30
0.0
 10
36.928473
 20
105.837893
 30
0.0
 10
36.722183
 20
106.044183
 30
0.0
  0
SPLINE
  5
11f
100
AcDbEntity
  8
0
 62
5
100
AcDbSpline
 70
8
 71
3
 72
8
 73
4
 74
0
 40
0
 40
0
 40
0
 40
0
 40
1
 40
1
 40
1
 40
1
 10
36.722183
 20
106.044183
 30
0.0
 10
36.515893
 20
106.250473
 30
0.0
 10
36.400000
 20
106.530262
 30
0.0
 10
36.400000
 20
106.822000
 30
0.0
  0
SPLINE
  5
120
100
AcDbEntity
  8
0
 62
5
100
AcDbSpline
 70
8
 71
3
 72
8
 73
4
 74
0
 40
0
 40
0
 40
0
 40
0
 40
1
 40
1
 40
1
 40
1
 10
36.400000
 20
106.822000
 30
0.0
 10
36.400000
 20
107.113738
 30
0.0
 10
36.515893
 20
107.393527
 30
0.0
 10
36.722183
 20
107.599817
 30
0.0
  0
SPLINE
  5
121
100
AcDbEntity
  8
0
 62
5
100
AcDbSpline
 70
8
 71
3
 72
8
 73
4
 74
0
 40
0
 40
0
 40
0
 40
0
 40
1
 40
1
 40
1
 40
1
 10
36.722183
 20
107.599817
 30
0.0
 10
36.928473
 20
107.806107
 30
0.0
 10
37.208262
 20
107.922000
 30
0.0
 10
37.500000
 20
107.922000
 30
0.0
  0
SPLINE
  5
122
100
AcDbEntity
  8
0
 62
5
100
AcDbSpline
 70
8
 71
3
 72
8
 73
4
 74
0
 40
0
 40
0
 40
0
 40
0
 40
1
 40
1
 40
1
 40
1
 10
37.500000
 20
107.922000
 30
0.0
 10
37.791738
 20
107.922000
 30
0.0
 10
38.071527
 20
107.806107
 30
0.0
 10
38.277817
 20
107.599817
 30
0.0
  0
SPLINE
  5
123
100
AcDbEntity
  8
0
 62
5
100
AcDbSpline
 70
8
 71
3
 72
8
 73
4
 74
0
 40
0
 40
0
 40
0
 40
0
 40
1
 40
1
 40
1
 40
1
 10
38.277817
 20
107.599817
 30
0.0
 10
38.484107
 20
107.393527
 30
0.0
 10
38.600000
 20
107.113738
 30
0.0
 10
38.600000
 20
106.822000
 30
0.0
  0
SPLINE
  5
124
100
AcDbEntity
  8
0
 62
5
100
AcDbSpline
 70
8
 71
3
 72
8
 73
4
 74
0
 40
0
 40
0
 40
0
 40
0
 40
1
 40
1
 40
1
 40
1
 10
38.600000
 20
106.822000
 30
0.0
 10
38.600000
 20
106.530262
 30
0.0
 10
38.484107
 20
106.250473
 30
0.0
 10
38.277817
 20
106.044183
 30
0.0
  0
SPLINE
  5
125
100
AcDbEntity
  8
0
 62
5
100
AcDbSpline
 70
8
 71
3
 72
8
 73
4
 74
0
 40
0
 40
0
 40
0
 40
0
 40
1
 40
1
 40
1
 40
1
 10
38.277817
 20
106.044183
 30
0.0
 10
38.071527
 20
105.837893
 30
0.0
 10
37.791738
 20
105.722000
 30
0.0
 10
37.500000
 20
105.722000
 30
0.0
  0
SPLINE
  5
126
100
AcDbEntity
  8
0
 62
5
100
AcDbSpline
 70
8
 71
3
 72
8
 73
4
 74
0
 40
0
 40
0
 40
0
 40
0
 40
1
 40
1
 40
1
 40
1
 10
8.000000
 20
39.144000
 30
0.0
 10
7.708262
 20
39.144000
 30
0.0
 10
7.428473
 20
39.259893
 30
0.0
 10
7.222183
 20
39.466183
 30
0.0
  0
SPLINE
  5
127
100
AcDbEntity
  8
0
 62
5
100
AcDbSpline
 70
8
 71
3
 72
8
 73
4
 74
0
 40
0
 40
0
 40
0
 40
0
 40
1
 40
1
 40
1
 40
1
 10
7.222183
 20
39.466183
 30
0.0
 10
7.015893
 20
39.672473
 30
0.0
 10
6.900000
 20
39.952262
 30
0.0
 10
6.900000
 20
40.244000
 30
0.0
  0
SPLINE
  5
128
100
AcDbEntity
  8
0
 62
5
100
AcDbSpline
 70
8
 71
3
 72
8
 73
4
 74
0
 40
0
 40
0
 40
0
 40
0
 40
1
 40
1
 40
1
 40
1
 10
6.900000
 20
40.244000
 30
0.0
 10
6.900000
 20
40.535738
 30
0.0
 10
7.015893
 20
40.815527
 30
0.0
 10
7.222183
 20
41.021817
 30
0.0
  0
SPLINE
  5
129
100
AcDbEntity
  8
0
 62
5
100
AcDbSpline
 70
8
 71
3
 72
8
 73
4
 74
0
 40
0
 40
0
 40
0
 40
0
 40
1
 40
1
 40
1
 40
1
 10
7.222183
 20
41.021817
 30
0.0
 10
7.428473
 20
41.228107
 30
0.0
 10
7.708262
 20
41.344000
 30
0.0
 10
8.000000
 20
41.344000
 30
0.0
  0
SPLINE
  5
12a
100
AcDbEntity
  8
0
 62
5
100
AcDbSpline
 70
8
 71
3
 72
8
 73
4
 74
0
 40
0
 40
0
 40
0
 40
0
 40
1
 40
1
 40
1
 40
1
 10
8.000000
 20
41.344000
 30
0.0
 10
8.607513
 20
41.344000
 30
0.0
 10
9.100000
 20
40.851513
 30
0.0
 10
9.100000
 20
40.244000
 30
0.0
  0
SPLINE
  5
12b
100
AcDbEntity
  8
0
 62
5
100
AcDbSpline
 70
8
 71
3
 72
8
 73
4
 74
0
 40
0
 40
0
 40
0
 40
0
 40
1
 40
1
 40
1
 40
1
 10
9.100000
 20
40.244000
 30
0.0
 10
9.100000
 20
39.636487
 30
0.0
 10
8.607513
 20
39.144000
 30
0.0
 10
8.000000
 20
39.144000
 30
0.0
  0
SPLINE
  5
12c
100
AcDbEntity
  8
0
 62
5
100
AcDbSpline
 70
8
 71
3
 72
8
 73
4
 74
0
 40
0
 40
0
 40
0
 40
0
 40
1
 40
1
 40
1
 40
1
 10
86.229000
 20
29.222000
 30
0.0
 10
85.937262
 20
29.222000
 30
0.0
 10
85.657473
 20
29.337893
 30
0.0
 10
85.451183
 20
29.544183
 30
0.0
  0
SPLINE
  5
12d
100
AcDbEntity
  8
0
 62
5
100
AcDbSpline
 70
8
 71
3
 72
8
 73
4
 74
0
 40
0
 40
0
 40
0
 40
0
 40
1
 40
1
 40
1
 40
1
 10
85.451183
 20
29.544183
 30
0.0
 10
85.244893
 20
29.750473
 30
0.0
 10
85.129000
 20
30.030262
 30
0.0
 10
85.129000
 20
30.322000
 30
0.0
  0
SPLINE
  5
12e
100
AcDbEntity
  8
0
 62
5
100
AcDbSpline
 70
8
 71
3
 72
8
 73
4
 74
0
 40
0
 40
0
 40
0
 40
0
 40
1
 40
1
 40
1
 40
1
 10
85.129000
 20
30.322000
 30
0.0
 10
85.129000
 20
30.613738
 30
0.0
 10
85.244893
 20
30.893527
 30
0.0
 10
85.451183
 20
31.099817
 30
0.0
  0
SPLINE
  5
12f
100
AcDbEntity
  8
0
 62
5
100
AcDbSpline
 70
8
 71
3
 72
8
 73
4
 74
0
 40
0
 40
0
 40
0
 40
0
 40
1
 40
1
 40
1
 40
1
 10
85.451183
 20
31.099817
 30
0.0
 10
85.657473
 20
31.306107
 30
0.0
 10
85.937262
 20
31.422000
 30
0.0
 10
86.229000
 20
31.422000
 30
0.0
  0
SPLINE
  5
130
100
AcDbEntity
  8
0
 62
5
100
AcDbSpline
 70
8
 71
3
 72
8
 73
4
 74
0
 40
0
 40
0
 40
0
 40
0
 40
1
 40
1
 40
1
 40
1
 10
86.229000
 20
31.422000
 30
0.0
 10
86.836513
 20
31.422000
 30
0.0
 10
87.329000
 20
30.929513
 30
0.0
 10
87.329000
 20
30.322000
 30
0.0
  0
SPLINE
  5
131
100
AcDbEntity
  8
0
 62
5
100
AcDbSpline
 70
8
 71
3
 72
8
 73
4
 74
0
 40
0
 40
0
 40
0
 40
0
 40
1
 40
1
 40
1
 40
1
 10
87.329000
 20
30.322000
 30
0.0
 10
87.329000
 20
29.714487
 30
0.0
 10
86.836513
 20
29.222000
 30
0.0
 10
86.229000
 20
29.222000
 30
0.0
  0
SPLINE
  5
132
100
AcDbEntity
  8
0
 62
5
100
AcDbSpline
 70
8
 71
3
 72
8
 73
4
 74
0
 40
0
 40
0
 40
0
 40
0
 40
1
 40
1
 40
1
 40
1
 10
150.750000
 20
98.972000
 30
0.0
 10
150.458262
 20
98.972000
 30
0.0
 10
150.178473
 20
99.087893
 30
0.0
 10
149.972183
 20
99.294183
 30
0.0
  0
SPLINE
  5
133
100
AcDbEntity
  8
0
 62
5
100
AcDbSpline
 70
8
 71
3
 72
8
 73
4
 74
0
 40
0
 40
0
 40
0
 40
0
 40
1
 40
1
 40
1
 40
1
 10
149.972183
 20
99.294183
 30
0.0
 10
149.765893
 20
99.500473
 30
0.0
 10
149.650000
 20
99.780262
 30
0.0
 10
149.650000
 20
100.072000
 30
0.0
  0
SPLINE
  5
134
100
AcDbEntity
  8
0
 62
5
100
AcDbSpline
 70
8
 71
3
 72
8
 73
4
 74
0
 40
0
 40
0
 40
0
 40
0
 40
1
 40
1
 40
1
 40
1
 10
149.650000
 20
100.072000
 30
0.0
 10
149.650000
 20
100.363738
 30
0.0
 10
149.765893
 20
100.643527
 30
0.0
 10
149.972183
 20
100.849817
 30
0.0
  0
SPLINE
  5
135
100
AcDbEntity
  8
0
 62
5
100
AcDbSpline
 70
8
 71
3
 72
8
 73
4
 74
0
 40
0
 40
0
 40
0
 40
0
 40
1
 40
1
 40
1
 40
1
 10
149.972183
 20
100.849817
 30
0.0
 10
150.178473
 20
101.056107
 30
0.0
 10
150.458262
 20
101.172000
 30
0.0
 10
150.750000
 20
101.172000
 30
0.0
  0
SPLINE
  5
136
100
AcDbEntity
  8
0
 62
5
100
AcDbSpline
 70
8
 71
3
 72
8
 73
4
 74
0
 40
0
 40
0
 40
0
 40
0
 40
1
 40
1
 40
1
 40
1
 10
150.750000
 20
101.172000
 30
0.0
 10
151.041738
 20
101.172000
 30
0.0
 10
151.321527
 20
101.056107
 30
0.0
 10
151.527817
 20
100.849817
 30
0.0
  0
SPLINE
  5
137
100
AcDbEntity
  8
0
 62
5
100
AcDbSpline
 70
8
 71
3
 72
8
 73
4
 74
0
 40
0
 40
0
 40
0
 40
0
 40
1
 40
1
 40
1
 40
1
 10
151.527817
 20
100.849817
 30
0.0
 10
151.734107
 20
100.643527
 30
0.0
 10
151.850000
 20
100.363738
 30
0.0
 10
151.850000
 20
100.072000
 30
0.0
  0
SPLINE
  5
138
100
AcDbEntity
  8
0
 62
5
100
AcDbSpline
 70
8
 71
3
 72
8
 73
4
 74
0
 40
0
 40
0
 40
0
 40
0
 40
1
 40
1
 40
1
 40
1
 10
151.850000
 20
100.072000
 30
0.0
 10
151.850000
 20
99.780262
 30
0.0
 10
151.734107
 20
99.500473
 30
0.0
 10
151.527817
 20
99.294183
 30
0.0
  0
SPLINE
  5
139
100
AcDbEntity
  8
0
 62
5
100
AcDbSpline
 70
8
 71
3
 72
8
 73
4
 74
0
 40
0
 40
0
 40
0
 40
0
 40
1
 40
1
 40
1
 40
1
 10
151.527817
 20
99.294183
 30
0.0
 10
151.321527
 20
99.087893
 30
0.0
 10
151.041738
 20
98.972000
 30
0.0
 10
150.750000
 20
98.972000
 30
0.0
  0
SPLINE
  5
13a
100
AcDbEntity
  8
0
 62
5
100
AcDbSpline
 70
8
 71
3
 72
8
 73
4
 74
0
 40
0
 40
0
 40
0
 40
0
 40
1
 40
1
 40
1
 40
1
 10
149.432000
 20
39.540000
 30
0.0
 10
149.140262
 20
39.540000
 30
0.0
 10
148.860473
 20
39.655893
 30
0.0
 10
148.654183
 20
39.862183
 30
0.0
  0
SPLINE
  5
13b
100
AcDbEntity
  8
0
 62
5
100
AcDbSpline
 70
8
 71
3
 72
8
 73
4
 74
0
 40
0
 40
0
 40
0
 40
0
 40
1
 40
1
 40
1
 40
1
 10
148.654183
 20
39.862183
 30
0.0
 10
148.447893
 20
40.068473
 30
0.0
 10
148.332000
 20
40.348262
 30
0.0
 10
148.332000
 20
40.640000
 30
0.0
  0
SPLINE
  5
13c
100
AcDbEntity
  8
0
 62
5
100
AcDbSpline
 70
8
 71
3
 72
8
 73
4
 74
0
 40
0
 40
0
 40
0
 40
0
 40
1
 40
1
 40
1
 40
1
 10
148.332000
 20
40.640000
 30
0.0
 10
148.332000
 20
41.247513
 30
0.0
 10
148.824487
 20
41.740000
 30
0.0
 10
149.432000
 20
41.740000
 30
0.0
  0
SPLINE
  5
13d
100
AcDbEntity
  8
0
 62
5
100
AcDbSpline
 70
8
 71
3
 72
8
 73
4
 74
0
 40
0
 40
0
 40
0
 40
0
 40
1
 40
1
 40
1
 40
1
 10
149.432000
 20
41.740000
 30
0.0
 10
149.723738
 20
41.740000
 30
0.0
 10
150.003527
 20
41.624107
 30
0.0
 10
150.209817
 20
41.417817
 30
0.0
  0
SPLINE
  5
13e
100
AcDbEntity
  8
0
 62
5
100
AcDbSpline
 70
8
 71
3
 72
8
 73
4
 74
0
 40
0
 40
0
 40
0
 40
0
 40
1
 40
1
 40
1
 40
1
 10
150.209817
 20
41.417817
 30
0.0
 10
150.416107
 20
41.211527
 30
0.0
 10
150.532000
 20
40.931738
 30
0.0
 10
150.532000
 20
40.640000
 30
0.0
  0
SPLINE
  5
13f
100
AcDbEntity
  8
0
 62
5
100
AcDbSpline
 70
8
 71
3
 72
8
 73
4
 74
0
 40
0
 40
0
 40
0
 40
0
 40
1
 40
1
 40
1
 40
1
 10
150.532000
 20
40.640000
 30
0.0
 10
150.532000
 20
40.348262
 30
0.0
 10
150.416107
 20
40.068473
 30
0.0
 10
150.209817
 20
39.862183
 30
0.0
  0
SPLINE
  5
140
100
AcDbEntity
  8
0
 62
5
100
AcDbSpline
 70
8
 71
3
 72
8
 73
4
 74
0
 40
0
 40
0
 40
0
 40
0
 40
1
 40
1
 40
1
 40
1
 10
150.209817
 20
39.862183
 30
0.0
 10
150.003527
 20
39.655893
 30
0.0
 10
149.723738
 20
39.540000
 30
0.0
 10
149.432000
 20
39.540000
 30
0.0
  0
LWPOLYLINE
  5
141
100
AcDbEntity
  8
0
 62
1
100
AcDbPolyline
 90
2
 70
0
 10
15.500000
 20
104.916000
 30
0.0
 10
7.314000
 20
102.993000
 30
0.0
  0
SPLINE
  5
142
100
AcDbEntity
  8
0
 62
1
100
AcDbSpline
 70
8
 71
3
 72
8
 73
4
 74
0
 40
0
 40
0
 40
0
 40
0
 40
1
 40
1
 40
1
 40
1
 10
96.349000
 20
42.322000
 30
0.0
 10
93.153010
 20
42.322214
 30
0.0
 10
90.149438
 20
40.794785
 30
0.0
 10
88.267000
 20
38.212000
 30
0.0
  0
LWPOLYLINE
  5
143
100
AcDbEntity
  8
0
 62
1
100
AcDbPolyline
 90
15
 70
0
 10
24.801000
 20
15.363000
 30
0.0
 10
11.000000
 20
39.169000
 30
0.0
 10
31.500000
 20
51.053000
 30
0.0
 10
31.500000
 20
103.822000
 30
0.0
 10
50.750000
 20
103.822000
 30
0.0
 10
50.750000
 20
106.322000
 30
0.0
 10
69.750000
 20
106.322000
 30
0.0
 10
69.750000
 20
108.572000
 30
0.0
 10
90.750000
 20
108.572000
 30
0.0
 10
90.750000
 20
106.322000
 30
0.0
 10
109.750000
 20
106.322000
 30
0.0
 10
109.750000
 20
101.572000
 30
0.0
 10
147.750000
 20
101.572000
 30
0.0
 10
147.750000
 20
42.322000
 30
0.0
 10
96.349000
 20
42.322000
 30
0.0
  0
SPLINE
  5
144
100
AcDbEntity
  8
0
 62
1
100
AcDbSpline
 70
8
 71
3
 72
8
 73
4
 74
0
 40
0
 40
0
 40
0
 40
0
 40
1
 40
1
 40
1
 40
1
 10
83.123000
 20
31.154000
 30
0.0
 10
81.500391
 20
28.927564
 30
0.0
 10
79.031138
 20
27.469167
 30
0.0
 10
76.298000
 20
27.123000
 30
0.0
  0
LWPOLYLINE
  5
145
100
AcDbEntity
  8
0
 62
1
100
AcDbPolyline
 90
2
 70
0
 10
88.267000
 20
38.212000
 30
0.0
 10
83.123000
 20
31.154000
 30
0.0
  0
SPLINE
  5
146
100
AcDbEntity
  8
0
 62
1
100
AcDbSpline
 70
8
 71
3
 72
8
 73
4
 74
0
 40
0
 40
0
 40
0
 40
0
 40
1
 40
1
 40
1
 40
1
 10
44.747000
 20
23.127000
 30
0.0
 10
43.422095
 20
22.958860
 30
0.0
 10
42.144292
 20
22.527032
 30
0.0
 10
40.989000
 20
21.857000
 30
0.0
  0
LWPOLYLINE
  5
147
100
AcDbEntity
  8
0
 62
1
100
AcDbPolyline
 90
2
 70
0
 10
76.298000
 20
27.123000
 30
0.0
 10
44.747000
 20
23.127000
 30
0.0
  0
SPLINE
  5
148
100
AcDbEntity
  8
0
 62
1
100
AcDbSpline
 70
8
 71
3
 72
8
 73
4
 74
0
 40
0
 40
0
 40
0
 40
0
 40
1
 40
1
 40
1
 40
1
 10
28.217000
 20
14.454000
 30
0.0
 10
27.022647
 20
13.761987
 30
0.0
 10
25.493458
 20
14.168906
 30
0.0
 10
24.801000
 20
15.363000
 30
0.0
  0
LWPOLYLINE
  5
149
100
AcDbEntity
  8
0
 62
1
100
AcDbPolyline
 90
2
 70
0
 10
40.989000
 20
21.857000
 30
0.0
 10
28.217000
 20
14.454000
 30
0.0
  0
ENDSEC
  0
SECTION
  2
OBJECTS
  0
DICTIONARY
  5
C
330
0
100
AcDbDictionary
  3
ACAD_GROUP
350
D
  3
ACAD_MLINESTYLE
350
17
  0
DICTIONARY
  5
D
330
C
100
AcDbDictionary
  0
DICTIONARY
  5
1A
330
C
100
AcDbDictionary
  0
DICTIONARY
  5
17
330
C
100
AcDbDictionary
  3
STANDARD
350
18
  0
DICTIONARY
  5
19
330
C
100
AcDbDictionary
  0
ENDSEC
  0
EOF
